<svg width="40" height="60" viewBox="0 0 40 60" fill="#FFFFFF" xmlns="http://www.w3.org/2000/svg">
<path d="M10 0.5H39.5V50C39.5 55.2467 35.2467 59.5 30 59.5H0.5V10C0.5 4.7533 4.75329 0.5 10 0.5Z" stroke="#1C1B21"/>
<path d="M9.64645 29.6464C9.45118 29.8417 9.45118 30.1583 9.64645 30.3536L12.8284 33.5355C13.0237 33.7308 13.3403 33.7308 13.5355 33.5355C13.7308 33.3403 13.7308 33.0237 13.5355 32.8284L10.7071 30L13.5355 27.1716C13.7308 26.9763 13.7308 26.6597 13.5355 26.4645C13.3403 26.2692 13.0237 26.2692 12.8284 26.4645L9.64645 29.6464ZM30 29.5L10 29.5V30.5L30 30.5V29.5Z" fill="#1C1B21"/>
</svg>
